# xmcd
#
# Track frame offsets:
#	150
#	11300
#	33930
#	56837
#	72447
#	89077
#	101522
#	111405
#	136195
#	154055
#	176627
#	196407
#	217622
#	232850
#
# Disc length: 3399 seconds
#
# Revision: 1
# Processed by: cddbd v1.5.2PL0 Copyright (c) Steve Scherf et al.
# Submitted via: dBpowerAMP V4.0
#
DISCID=b70d450e
DTITLE=Various Artist - Christmas In Detroit "Too"!
DYEAR=1994
DGENRE=Christmas
TTITLE0=Christmas - Mitch Ryder and The Garfield Blues Band - Hey Hey Santa
TTITLE1=Christmas - DC Drive f Graham Strachan - The True Meaning Of Christmas
TTITLE2=Christmas - Skeleton Crew - Mary Christmas Was Her Name
TTITLE3=Christmas - Anita Cochrane - Please Come Home For Christmas
TTITLE4=Christmas - Johnny Trudell Band f Nikung - One Little Christmas Tree
TTITLE5=Christmas - Detroit All Stars - Cajun Christmas
TTITLE6=Christmas - Detroit Blues Band - Winter Wonderland
TTITLE7=Christmas - Sun Messengers - I Want To Be Your Santa
TTITLE8=Christmas - Howling Diablos - Christmas In Jail
TTITLE9=Christmas - Atanas - Little Drummer Boy
TTITLE10=Christmas - Michael Brock and B.A.U. II - Give Love On Christmas
TTITLE11=Christmas - Toni Booker - Don't You Know It's Christmas
TTITLE12=Christmas - Clinton River Rd - Singin' Christmas Carols
TTITLE13=Christmas - Mitch Albom and Janine Sabino - Romeo's Christmas
EXTD=
EXTT0=
EXTT1=
EXTT2=
EXTT3=
EXTT4=
EXTT5=
EXTT6=
EXTT7=
EXTT8=
EXTT9=
EXTT10=
EXTT11=
EXTT12=
EXTT13=
PLAYORDER=
